Genre:Action | Adventure
Language:English
IMDb:http://www.imdb.com/title/tt1424310/
Source:720p Chinese RVMB Thanks
Encoder:Tony
Subtitles:English,Chinese

Format : AVI
Format/Info : Audio Video Interleave
File size : 1.09 GiB
Duration : 1h 53mn
Overall bit rate : 1 384 Kbps

Video
ID : 0
Format : MPEG-4 Visual
Format profile : Simple@L5
Format settings, BVOP : No
Format settings, QPel : No
Format settings, GMC : No warppoints
Format settings, Matrix : Default (H.263)
Codec ID : XVID
Codec ID/Hint : XviD
Duration : 1h 53mn
Bit rate : 1 247 Kbps
Width : 640 pixels
Height : 264 pixels
Display aspect ratio : 2.40:1
Frame rate : 23.976 fps
Color space : YUV
Chroma subsampling : 4:2:0
Bit depth : 8 bits
Scan type : Progressive
Compression mode : Lossy
Bits/(Pixel*Frame) : 0.308
Stream size : 1 009 MiB (90%)
Writing library : XviD 64

Audio
ID : 1
Format : AC-3
Format/Info : Audio Coding 3
Mode extension : CM (complete main)
Codec ID : 2000
Duration : 1h 53mn
Bit rate mode : Constant
Bit rate : 128 Kbps
Channel(s) : 2 channels
Channel positions : Front: L R
Sampling rate : 48.0 KHz
Bit depth : 16 bits
Compression mode : Lossy
Stream size : 104 MiB (9%)
Alignment : Split accross interleaves
Interleave, duration : 42 ms (1.00 video frame)
Interleave, preload duration : 500 ms

Plot:
A man searches the world for a set of mystic artifacts - 12 bronze heads of the animals from the Chinese zodiac.

 
http://lookpic.com/O/i2/1185/lWDahuo.png
 
http://lookpic.com/O/i2/537/LHSBBHS.png
 
http://lookpic.com/O/i2/133/giM8pbCq.png